<svg xmlns="http://www.w3.org/2000/svg" width="1053" height="215" viewBox="0 0 1053 215" version="1.1"><path d="M 61.939 31.320 C 46.528 35.628, 43.542 42.457, 44.211 71.866 C 44.662 91.728, 45.688 95.763, 51.608 100.961 C 58.108 106.668, 63.289 107.455, 94.500 107.479 C 118.502 107.497, 123.317 107.247, 128.221 105.731 C 138.489 102.555, 143 95.482, 143 82.557 L 143 77 131.131 77 L 119.262 77 118.676 80.606 C 117.687 86.703, 116.803 86.933, 94.202 86.968 L 73.905 87 71.568 84.479 C 67.535 80.128, 66.967 62.018, 70.636 54.788 C 72.772 50.579, 77.228 49.808, 97.333 50.175 C 113.620 50.472, 115.288 50.668, 116.583 52.441 C 117.362 53.509, 118 55.421, 118 56.691 C 118 58.975, 118.132 59, 130 59 L 142 59 142 55.049 C 142 48.037, 139.944 41.006, 136.870 37.505 C 131.414 31.291, 127.972 30.696, 95.500 30.352 C 74.229 30.127, 65.284 30.385, 61.939 31.320 M 461.500 30.498 C 460.950 30.715, 458.562 31.391, 456.193 32 C 450.539 33.454, 444.564 38.968, 442.308 44.814 C 440.782 48.768, 440.504 52.545, 440.523 69 C 440.545 87.267, 440.694 88.831, 442.889 93.732 C 445.638 99.873, 451.181 104.074, 459.283 106.158 C 467.362 108.236, 520.789 107.913, 527.331 105.747 C 538.560 102.028, 542.359 97.060, 544.157 83.747 C 545.428 74.338, 544.697 51.608, 542.928 45.503 C 541.459 40.435, 534.741 33.640, 529.497 31.918 C 526.616 30.972, 516.704 30.536, 494 30.355 C 476.675 30.217, 462.050 30.282, 461.500 30.498 M 162.500 68.053 C 151.500 88.418, 142.350 105.513, 142.167 106.041 C 141.965 106.621, 146.993 107, 154.904 107 L 167.975 107 171.509 99.982 L 175.044 92.963 198.215 93.232 L 221.386 93.500 224.943 100.235 L 228.500 106.969 241.766 106.985 L 255.032 107 252.266 101.661 C 250.745 98.724, 241.400 81.628, 231.500 63.669 L 213.500 31.017 198 31.021 L 182.500 31.025 162.500 68.053 M 255.238 68.750 L 255.500 106.500 267.250 106.782 L 279 107.063 279 96.975 L 279 86.886 299.467 87.193 C 324.023 87.561, 323.249 87.196, 324 98.782 L 324.500 106.500 336.362 106.783 L 348.223 107.065 347.852 96.225 C 347.434 83.989, 346.219 81.026, 340.510 78.303 L 337.117 76.686 340.277 74.991 C 346.215 71.807, 347.462 68.965, 347.850 57.734 C 348.367 42.773, 345.833 36.645, 337.579 32.896 C 333.833 31.195, 330.295 31.042, 294.238 31.022 L 254.976 31 255.238 68.750 M 351 40.500 L 351 50 366.984 50 L 382.969 50 383.234 78.250 L 383.500 106.500 395.250 106.782 L 407 107.063 407 78.532 L 407 50 423.500 50 L 440 50 440 40.500 L 440 31 395.500 31 L 351 31 351 40.500 M 551 69 L 551 107 562.984 107 L 574.968 107 575.234 80.192 L 575.500 53.384 596.584 79.942 L 617.668 106.500 635.834 106.773 L 654 107.045 654 69.023 L 654 31 642.016 31 L 630.033 31 629.766 57.391 L 629.500 83.783 608.517 57.391 L 587.533 31 569.267 31 L 551 31 551 69 M 191.231 62.510 C 187.804 69.391, 185 75.241, 185 75.510 C 185 75.780, 191.102 76, 198.560 76 L 212.120 76 205.310 63.013 C 201.565 55.871, 198.267 50.021, 197.981 50.013 C 197.696 50.006, 194.659 55.630, 191.231 62.510 M 279 58.945 L 279 68 297.757 68 C 316.313 68, 322.602 67.230, 324.164 64.768 C 325.489 62.681, 325.104 54.525, 323.582 52.441 C 322.267 50.641, 320.597 50.478, 300.582 50.195 L 279 49.890 279 58.945 M 470.225 52.004 C 465.617 54.814, 464.802 57.854, 465.175 70.839 C 465.490 81.845, 465.582 82.248, 468.306 84.589 C 471.082 86.974, 471.338 87, 492.500 87 C 513.662 87, 513.918 86.974, 516.694 84.589 C 519.421 82.246, 519.509 81.854, 519.833 70.700 C 520.096 61.645, 519.829 58.570, 518.566 56.128 C 515.702 50.589, 513.173 50, 492.300 50.004 C 475.274 50.007, 473.191 50.196, 470.225 52.004 M 73 157.440 L 73 185 77 185 L 81 185 81.032 171.750 C 81.065 157.949, 81.473 156.406, 85.684 154.163 C 89.005 152.395, 91.604 152.755, 94.694 155.413 C 97.474 157.803, 97.503 157.950, 97.848 171.413 L 98.196 185 101.598 185 L 105 185 104.944 171.750 C 104.912 164.244, 104.370 156.998, 103.694 155.035 C 101.223 147.863, 91.057 144.664, 84.500 148.995 L 81.500 150.977 81 140.738 L 80.500 130.500 76.750 130.190 L 73 129.879 73 157.440 M 230 157.500 L 230 185 233.500 185 L 237 185 237 157.500 L 237 130 233.500 130 L 230 130 230 157.500 M 379.190 131.353 C 375.763 133.254, 373.226 137.719, 372.477 143.166 C 371.892 147.421, 371.524 148, 369.406 148 C 367.506 148, 367 148.526, 367 150.500 C 367 152.500, 367.500 153, 369.500 153 L 372 153 372 169 L 372 185 376 185 L 380 185 380 169 L 380 153 384.500 153 C 388.633 153, 389 152.796, 389 150.500 C 389 148.204, 388.633 148, 384.500 148 L 380 148 380 144.223 C 380 138.667, 382.267 136, 386.989 136 C 389.981 136, 391.009 135.546, 391.497 134.009 C 391.845 132.914, 391.848 131.564, 391.506 131.009 C 390.622 129.580, 381.949 129.822, 379.190 131.353 M 523 157.500 L 523 185 526.500 185 L 530 185 530 178.155 C 530 172.733, 530.390 170.957, 531.874 169.614 C 533.671 167.988, 533.995 168.262, 539.669 176.209 C 545.326 184.132, 545.775 184.514, 549.794 184.807 C 552.107 184.977, 554 184.791, 554 184.395 C 554 184, 550.937 179.586, 547.193 174.588 C 543.449 169.590, 540.041 164.927, 539.620 164.228 C 539.123 163.402, 541.207 160.417, 545.555 155.728 L 552.257 148.500 548.028 148.188 C 544.118 147.899, 543.523 148.201, 540.149 152.183 C 538.142 154.553, 535.050 158.069, 533.277 159.996 L 530.054 163.500 530.027 146.750 L 530 130 526.500 130 L 523 130 523 157.500 M 841 140.485 L 841 150.971 837.750 148.989 C 833.879 146.629, 827.088 146.386, 823.069 148.464 C 812.252 154.058, 809.671 170.860, 818.146 180.513 C 823.730 186.874, 833.771 187.320, 839.622 181.469 L 842 179.091 842 182.045 C 842 184.662, 842.344 185, 845 185 L 848 185 848 157.500 L 848 130 844.500 130 L 841 130 841 140.485 M 212.571 134.571 C 210.729 136.414, 210.629 137.438, 212.035 140.066 C 214.040 143.813, 220 141.893, 220 137.500 C 220 133.289, 215.592 131.551, 212.571 134.571 M 638.667 135.065 C 636.747 137.806, 637.668 140.879, 640.632 141.623 C 643.555 142.356, 646 140.513, 646 137.578 C 646 133.048, 641.226 131.412, 638.667 135.065 M 756.500 135.359 C 754.589 138.277, 755.452 140.824, 758.623 141.620 C 761.555 142.356, 764 140.518, 764 137.578 C 764 132.863, 759.088 131.410, 756.500 135.359 M 53 137.890 C 50.849 138.484, 50.457 139.238, 50.195 143.290 C 49.905 147.768, 49.745 148, 46.945 148 C 44.470 148, 44 148.399, 44 150.500 C 44 152.611, 44.467 153, 47 153 L 50 153 50 166.066 C 50 173.513, 50.465 180, 51.080 181.150 C 52.634 184.053, 58.403 186.203, 62.553 185.424 C 65.538 184.864, 66 184.390, 66 181.889 C 66 179.287, 65.672 179, 62.700 179 C 57.464 179, 57 177.844, 57 164.800 L 57 153 61.500 153 C 65.633 153, 66 152.796, 66 150.500 C 66 148.204, 65.633 148, 61.500 148 L 57 148 57 142.500 C 57 139.475, 56.663 137.045, 56.250 137.100 C 55.837 137.155, 54.375 137.510, 53 137.890 M 294 137.890 C 291.849 138.484, 291.457 139.238, 291.195 143.290 C 290.905 147.768, 290.745 148, 287.945 148 C 285.470 148, 285 148.399, 285 150.500 C 285 152.611, 285.467 153, 288 153 L 291 153 291 166.066 C 291 173.513, 291.465 180, 292.080 181.150 C 293.634 184.053, 299.403 186.203, 303.553 185.424 C 306.538 184.864, 307 184.390, 307 181.889 C 307 179.287, 306.672 179, 303.700 179 C 298.464 179, 298 177.844, 298 164.800 L 298 153 302.500 153 C 306.633 153, 307 152.796, 307 150.500 C 307 148.204, 306.633 148, 302.500 148 L 298 148 298 142.500 C 298 139.475, 297.663 137.045, 297.250 137.100 C 296.837 137.155, 295.375 137.510, 294 137.890 M 935 137.890 C 932.849 138.484, 932.457 139.238, 932.195 143.290 C 931.905 147.768, 931.745 148, 928.945 148 C 926.470 148, 926 148.399, 926 150.500 C 926 152.611, 926.467 153, 929 153 L 932 153 932 166.066 C 932 173.513, 932.465 180, 933.080 181.150 C 934.634 184.053, 940.403 186.203, 944.553 185.424 C 947.538 184.864, 948 184.390, 948 181.889 C 948 179.287, 947.672 179, 944.700 179 C 939.464 179, 939 177.844, 939 164.800 L 939 153 943.500 153 C 947.633 153, 948 152.796, 948 150.500 C 948 148.204, 947.633 148, 943.500 148 L 939 148 939 142.500 C 939 139.475, 938.663 137.045, 938.250 137.100 C 937.837 137.155, 936.375 137.510, 935 137.890 M 124 147.668 C 116.831 150.617, 112.866 157.300, 112.813 166.523 C 112.730 180.826, 123.171 187.998, 139.250 184.683 C 142.325 184.049, 143 183.478, 143 181.514 C 143 178.291, 142.110 177.931, 137.213 179.174 C 134.922 179.756, 131.394 179.921, 129.373 179.542 C 124.828 178.690, 120 174.071, 120 170.577 L 120 168 132.500 168 L 145 168 145 163.468 C 145 157.950, 143.136 153.310, 139.615 150.063 C 137.571 148.178, 135.673 147.561, 131.236 147.338 C 128.081 147.180, 124.825 147.329, 124 147.668 M 179.842 149.316 C 176.374 151.685, 176.159 151.716, 175.686 149.907 C 175.331 148.549, 174.296 148, 172.094 148 L 169 148 169 174 L 169 200 172.500 200 L 176 200 176 190.427 L 176 180.855 178.491 182.814 C 184.169 187.280, 193.398 186.344, 198.651 180.769 C 202.467 176.719, 204 172.292, 204 165.319 C 204 158.797, 202.276 154.468, 198.124 150.564 C 195.589 148.180, 193.921 147.552, 189.251 147.223 C 184.366 146.879, 182.950 147.194, 179.842 149.316 M 255.500 148.357 C 242.975 154.151, 241.371 174.895, 252.848 182.666 C 259.083 186.888, 268.482 186.555, 274.397 181.902 C 283.572 174.685, 283.243 156.582, 273.815 149.868 C 269.847 147.043, 260.084 146.237, 255.500 148.357 M 336.960 149.303 C 331.086 152.409, 328 158.225, 328 166.189 C 328 173.360, 329.717 177.743, 333.909 181.270 C 341.067 187.293, 351.685 186.921, 358.387 180.413 C 367.919 171.155, 364.649 152.600, 352.685 148.067 C 348.043 146.308, 341.677 146.808, 336.960 149.303 M 422.500 148.167 C 421.400 148.775, 419.488 150.190, 418.250 151.311 L 416 153.349 416 150.674 C 416 148.324, 415.606 148, 412.750 147.999 L 409.500 147.999 409.782 173.999 L 410.065 200 413.532 200 L 417 200 417 190.427 L 417 180.855 419.529 182.844 C 424.799 186.989, 433.671 186.259, 439.355 181.212 C 445.055 176.150, 446.714 163.817, 442.750 155.970 C 439.775 150.081, 435.058 146.991, 429.102 147.030 C 426.571 147.047, 423.600 147.559, 422.500 148.167 M 456.250 148.437 C 453.023 149.893, 452.326 151.391, 453.798 153.708 C 454.391 154.640, 455.518 154.588, 458.746 153.475 C 463.787 151.739, 468.533 152.495, 470.536 155.355 C 473.332 159.347, 472.457 160.673, 466.628 161.275 C 455.462 162.427, 449.229 168.215, 450.328 176.411 C 451.429 184.615, 459.518 187.978, 468.024 183.769 C 472.640 181.484, 473 181.439, 473 183.153 C 473 184.570, 473.756 185, 476.250 185 L 479.500 185 479.226 172.250 C 478.868 155.592, 478.534 153.886, 474.970 150.471 C 472.428 148.035, 471.007 147.545, 465.733 147.281 C 461.776 147.084, 458.313 147.505, 456.250 148.437 M 498.030 148.530 C 493.381 150.618, 491.176 152.737, 488.790 157.413 C 486.116 162.652, 486.565 173.591, 489.623 177.718 C 494.493 184.292, 502.017 186.833, 510.940 184.919 C 514.575 184.140, 515.996 183.365, 515.985 182.167 C 515.954 178.806, 514.654 178.063, 510.475 179.016 C 505.267 180.203, 499.685 178.686, 497.080 175.374 C 492.536 169.598, 493.549 160.240, 499.237 155.454 C 502.161 152.993, 502.980 152.805, 508.728 153.266 C 514.744 153.749, 515.046 153.665, 515.630 151.339 C 515.965 150.001, 515.937 148.604, 515.566 148.233 C 514.096 146.762, 501.491 146.976, 498.030 148.530 M 563.250 148.491 C 560.025 149.893, 559.323 151.386, 560.798 153.708 C 561.389 154.638, 562.570 154.570, 565.933 153.411 C 571.121 151.624, 575.414 152.325, 577.499 155.302 C 580.333 159.349, 579.476 160.671, 573.628 161.275 C 560.661 162.613, 553.891 171.088, 558.566 180.128 C 561.653 186.097, 570.782 187.427, 577.216 182.846 L 580 180.864 580 182.932 C 580 184.607, 580.630 185, 583.319 185 L 586.637 185 586.211 170.750 C 585.739 154.945, 584.589 150.873, 579.915 148.456 C 576.365 146.620, 567.511 146.639, 563.250 148.491 M 604.423 147.967 C 595.269 151.671, 591.096 166.106, 596.294 176.093 C 600.659 184.480, 611.051 187.179, 618.396 181.833 L 621.291 179.725 620.764 184.403 C 619.799 192.967, 613.454 196.456, 603.927 193.663 C 600.982 192.800, 598.481 192.186, 598.368 192.299 C 598.255 192.412, 597.869 193.673, 597.511 195.101 C 596.945 197.355, 597.298 197.882, 600.179 199.088 C 602.006 199.852, 606.200 200.478, 609.500 200.479 C 617.716 200.481, 622.805 197.802, 625.700 191.948 C 627.703 187.897, 627.926 185.735, 628.200 167.749 L 628.500 147.998 625.250 147.999 C 622.621 148, 622 148.399, 622 150.089 C 622 152.099, 621.884 152.080, 618.923 149.589 C 616.535 147.580, 614.800 147.014, 611.173 147.063 C 608.603 147.098, 605.565 147.505, 604.423 147.967 M 668.465 147.952 C 667.346 148.405, 665.829 149.502, 665.093 150.388 C 663.277 152.576, 662 152.416, 662 150 C 662 148.444, 661.333 148, 659 148 L 656 148 656 166.500 L 656 185 659.500 185 L 663 185 663 173.468 C 663 161.076, 664.271 155.996, 667.850 154.080 C 671.161 152.308, 674.934 152.843, 677.545 155.455 C 679.910 157.819, 680 158.406, 680 171.455 L 680 185 684.094 185 L 688.188 185 687.824 170.750 C 687.421 154.909, 686.300 151.241, 681.033 148.517 C 677.881 146.887, 671.769 146.612, 668.465 147.952 M 703.990 149.250 C 699.225 152.493, 697.145 155.758, 695.866 162 C 694.449 168.919, 695.835 174.604, 700.133 179.499 C 705.586 185.709, 715.024 186.353, 720.864 180.912 L 723.156 178.777 722.431 183.638 C 721.470 190.085, 719.573 192.748, 714.956 194.131 C 711.297 195.228, 707.038 194.709, 701.792 192.528 C 700.507 191.994, 699.926 192.447, 699.448 194.352 C 698.563 197.879, 699.291 198.630, 704.898 199.976 C 714.400 202.255, 723.262 199.119, 727.446 191.997 C 729.299 188.842, 729.533 186.517, 729.839 168.250 L 730.178 148 727.057 148 C 725.269 148, 723.702 148.613, 723.386 149.435 C 722.928 150.630, 722.305 150.547, 719.668 148.939 C 715.236 146.237, 708.212 146.376, 703.990 149.250 M 786.465 147.952 C 785.346 148.405, 783.829 149.502, 783.093 150.388 C 781.277 152.576, 780 152.416, 780 150 C 780 148.444, 779.333 148, 777 148 L 774 148 774 166.500 L 774 185 777.500 185 L 781 185 781 172.950 C 781 164.159, 781.408 160.111, 782.510 157.980 C 785.336 152.516, 791.427 151.336, 795.545 155.455 C 797.910 157.819, 798 158.406, 798 171.455 L 798 185 802.094 185 L 806.188 185 805.824 170.750 C 805.421 154.909, 804.300 151.241, 799.033 148.517 C 795.881 146.887, 789.769 146.612, 786.465 147.952 M 902.400 150.400 C 899.688 153.112, 899 154.595, 899 157.726 C 899 162.438, 901.607 165.289, 909.311 169 C 915.082 171.781, 916.432 174.760, 913.425 178.082 C 911.371 180.352, 907.238 180.544, 902.554 178.587 C 899.265 177.213, 899.156 177.244, 898.531 179.732 C 897.725 182.945, 898.704 183.921, 903.909 185.091 C 913.980 187.354, 922 182.336, 922 173.772 C 922 169.114, 919.561 166.138, 913.572 163.489 C 907.752 160.915, 905.679 158.907, 906.176 156.323 C 906.727 153.463, 910.569 152.116, 915.203 153.157 C 919.777 154.185, 919.511 154.282, 920.443 151.251 C 921.315 148.412, 918.123 147, 910.835 147 C 906.442 147, 905.366 147.434, 902.400 150.400 M 965.019 149.637 C 961.912 152.252, 961.880 152.256, 961.326 150.137 C 960.918 148.578, 959.988 148, 957.883 148 L 955 148 955 166.500 L 955 185 958.500 185 L 962 185 962.011 175.750 C 962.017 170.662, 962.301 164.815, 962.641 162.756 C 963.465 157.770, 967.043 154, 970.952 154 C 973.769 154, 974 153.734, 974 150.500 C 974 147.298, 973.751 147, 971.077 147 C 969.377 147, 966.842 148.104, 965.019 149.637 M 212 166.500 L 212 185 215.500 185 L 219 185 219 166.500 L 219 148 215.500 148 L 212 148 212 166.500 M 638 166.500 L 638 185 642 185 L 646 185 646 166.500 L 646 148 642 148 L 638 148 638 166.500 M 756 166.500 L 756 185 760 185 L 764 185 764 166.500 L 764 148 760 148 L 756 148 756 166.500 M 858.024 159.750 C 858.037 166.213, 858.451 173.238, 858.944 175.362 C 861.325 185.625, 872.975 189.043, 880.750 181.759 L 883 179.651 883 182.326 C 883 184.715, 883.372 185, 886.500 185 L 890 185 890 166.500 L 890 148 886 148 L 882 148 882 161.045 C 882 173.563, 881.901 174.190, 879.545 176.545 C 876.738 179.353, 871.531 179.839, 868.441 177.583 C 866.708 176.318, 866.465 174.653, 866.174 162.083 L 865.849 148 861.924 148 L 858 148 858.024 159.750 M 977.146 148.713 C 977.341 149.173, 980.591 157.230, 984.369 166.617 L 991.238 183.683 988.575 187.708 C 987.110 189.922, 984.356 192.570, 982.455 193.594 C 978.631 195.653, 978.582 195.771, 979.986 199.462 L 980.971 202.055 984.860 200.071 C 993.120 195.857, 996.311 190.015, 1009.065 155.750 L 1011.950 148 1008.044 148 L 1004.138 148 999.848 161 C 997.488 168.150, 995.320 173.999, 995.029 173.998 C 994.738 173.998, 992.428 168.260, 989.896 161.248 L 985.293 148.500 981.042 148.187 C 978.704 148.015, 976.951 148.252, 977.146 148.713 M 125.420 153.145 C 123.308 154.169, 120 158.906, 120 160.904 C 120 161.617, 123.143 162, 129 162 C 138.701 162, 139.177 161.678, 136.890 156.657 C 135.048 152.614, 129.815 151.012, 125.420 153.145 M 260.255 153.214 C 248.736 156.199, 251.175 180, 263 180 C 266.729 180, 271.563 175.854, 273.036 171.392 C 275.438 164.112, 271.438 153.890, 265.761 152.805 C 264.517 152.567, 262.040 152.751, 260.255 153.214 M 343.500 152.793 C 338.923 153.739, 334.980 159.983, 335.022 166.218 C 335.105 178.638, 347.406 184.457, 353.732 175.070 C 356.732 170.619, 356.868 161.935, 354.011 157.250 C 352.921 155.463, 351.907 154, 351.758 154 C 351.609 154, 350.140 153.635, 348.493 153.190 C 346.847 152.744, 344.600 152.566, 343.500 152.793 M 181.117 154.631 C 173.888 159.694, 174.699 175.217, 182.383 178.867 C 186.155 180.659, 192.122 178.988, 194.408 175.500 C 196.684 172.026, 197.466 164.941, 196.046 160.641 C 193.803 153.844, 186.460 150.888, 181.117 154.631 M 420.766 155.918 C 417.623 158.726, 417.500 159.122, 417.500 166.395 C 417.500 173.308, 417.735 174.190, 420.250 176.705 C 425.963 182.418, 434.771 179.277, 437.080 170.703 C 440.572 157.736, 429.729 147.909, 420.766 155.918 M 605.044 155.802 C 599.483 161.363, 600.190 173.316, 606.301 177.042 C 610.114 179.367, 612.168 179.482, 615.855 177.575 C 619.539 175.670, 621 172.108, 621 165.030 C 621 160.167, 620.554 158.623, 618.411 156.077 C 614.858 151.854, 609.111 151.735, 605.044 155.802 M 706.661 155.612 C 701.597 160.675, 701.753 171.602, 706.954 176.250 C 713.188 181.821, 721.245 178.124, 722.483 169.125 C 723.315 163.077, 721.648 156.568, 718.749 154.537 C 715.243 152.081, 709.699 152.574, 706.661 155.612 M 825.127 155.096 C 818.171 161.577, 820.263 176.968, 828.396 179.134 C 832.387 180.197, 837.493 177.882, 839.434 174.128 C 842.655 167.898, 840.746 156.540, 836.055 154.030 C 832.836 152.307, 827.569 152.821, 825.127 155.096 M 464.139 166.999 C 460.122 167.948, 458.357 169.582, 457.479 173.163 C 456.244 178.205, 462.129 181.599, 467.316 178.837 C 470.755 177.005, 471.934 174.829, 471.968 170.250 C 472.003 165.568, 471.347 165.296, 464.139 166.999 M 570.600 167.478 C 566.011 169.113, 565.036 170.377, 565.015 174.715 C 564.989 180.253, 572.094 181.997, 576.545 177.545 C 578.432 175.659, 579 174.038, 579 170.545 C 579 166.485, 578.760 166.005, 576.750 166.044 C 575.513 166.068, 572.745 166.713, 570.600 167.478" stroke="none" fill="#2c3c84" fill-rule="evenodd"/><path d="M 719.667 31.434 C 713.788 33.014, 710.149 35.607, 707.500 40.105 C 704.770 44.740, 704.644 62.765, 707.307 67.741 C 711.213 75.037, 715.294 76.027, 745.500 77.006 C 759.250 77.452, 771.737 78.296, 773.250 78.883 C 775.516 79.763, 776 80.561, 776 83.419 C 776 89.469, 774.173 90, 753.343 90 C 743.326 90, 734 89.570, 732.619 89.045 C 730.825 88.363, 729.918 87.078, 729.443 84.545 L 728.777 81 716.889 81 L 705 81 705.006 85.750 C 705.018 96.580, 709.022 103.038, 717.238 105.478 C 724.196 107.544, 751.681 108.418, 771.250 107.196 C 796.523 105.617, 800.500 102.395, 800.500 83.500 C 800.500 62.347, 794.414 59.115, 754.178 58.900 C 743.905 58.845, 734.418 58.498, 733.095 58.128 C 727.673 56.611, 727.705 49.996, 733.143 48.100 C 737.162 46.699, 764.275 46.671, 769.286 48.063 C 772.328 48.907, 773.189 49.693, 773.661 52.057 L 774.250 55 786.264 55 L 798.278 55 797.745 49.125 C 796.782 38.500, 792.490 33.248, 783 31.078 C 776.262 29.537, 725.666 29.822, 719.667 31.434 M 809 69 L 809 107 821 107 L 833 107 833 69 L 833 31 821 31 L 809 31 809 69 M 836 40.500 L 836 50 852.500 50 L 869 50 869 78.532 L 869 107.063 880.750 106.782 L 892.500 106.500 892.766 78.250 L 893.031 50 909.016 50 L 925 50 925 40.500 L 925 31 880.500 31 L 836 31 836 40.500 M 928 69 L 928 107 970 107 L 1012 107 1012 97.500 L 1012 88 981.500 88 L 951 88 951 82 L 951 76 979.500 76 L 1008 76 1008 68 L 1008 60 979.500 60 L 951 60 951 54.500 L 951 49 981 49 L 1011 49 1011 40 L 1011 31 969.500 31 L 928 31 928 69 M 669 96 L 669 107 680.500 107 L 692 107 692 96 L 692 85 680.500 85 L 669 85 669 96" stroke="none" fill="#ec1c24" fill-rule="evenodd"/></svg>